<?xml version="1.0" encoding="UTF-8"?>
<svg id="Layer_1" data-name="Layer 1" xmlns="http://www.w3.org/2000/svg" viewBox="0 0 511.81 490.6">
  <defs>
    <style>
      .cls-1 {
        fill: #8668ff;
      }
    </style>
  </defs>
  <path class="cls-1" d="m431.59,128.33c-.86-3.26-2.36-6.35-3.57-9.51-1.04-2.88-2.07-5.74-3.09-8.6-1.01-1.07-1.85-2.21-1.9-3.76-1.42-1.07-.88-3.3-2.53-4.23-1.42-3.08-2.82-6.16-4.24-9.24-1.02-.23-.86-1.06-.92-1.79-1.24-.63-1.8-1.67-1.92-3.02-1.06-.19-.91-1.04-.97-1.76-4.13-5.79-8.27-11.57-12.4-17.36-1.51-1.02-2.97-2.08-3.6-3.91-.72-.92-1.44-1.84-2.16-2.76-2.52-1.99-4.79-4.22-6.72-6.8-1.23-.65-2.17-1.6-2.85-2.82-2.21-1.6-4.12-3.53-5.76-5.71-1.28-1.27-2.56-2.53-3.83-3.8-1.97-.06-2.9-1.5-3.82-2.93-.63-.41-1.27-.81-1.89-1.2-.68.19-.91-.24-1.06-.77-.61-.61-1.23-1.21-1.84-1.83-2.03-.03-2.88-1.62-3.91-2.95-7-4.13-14.01-8.27-21-12.4-2.7-.05-4.15-2.74-6.67-3.14-1.92-.96-3.83-1.93-5.75-2.89-2.56-.96-5.11-1.9-7.67-2.86-7.02-2.24-14.05-4.47-21.08-6.7-1.53.7-2.42-1.19-3.83-.96-2.1.77-3.73-1.23-5.75-.96C284.56,1.87,277.75,2.89,271.68,0h-2.88C267.52,1.75,266.24,1.15,264.97,0h-17.24C246.45,1.15,245.17,1.75,243.89,0h-4.79c-3.71,2.66-8.26,2.04-12.33,2.62-16.36,2.34-31.7,7.82-46.97,13.71-2.58,1.3-5.15,2.61-7.73,3.9-10.68,5.8-20.96,12.18-30.46,19.87-10.71,8.69-20.3,18.38-29.08,29-7.63,9.23-13.47,19.62-19.93,29.63-.78,2.81-2.03,5.38-3.83,7.67-4.46,11.98-9.06,23.89-12.1,36.35-4.33,17.77-5.39,35.89-4.08,53.95,1.37,18.8,5.73,37.18,12.17,55.01,8.28,22.97,18.15,45.17,30.81,66.08,1.76,2.91,3.27,5.98,4.88,8.97.27.33.52.65.78.97,6.72,10.62,13.1,21.47,20.24,31.81,8.06,11.67,16.63,23.03,25.32,34.25,14.44,18.65,29.61,36.67,45.31,54.28,12.27,13.78,25.28,26.79,38.23,39.88.96.97,2.08,1.78,3.14,2.66h.96c.32-.66.64-.66.95,0h2.88c11.92-9.39,21.52-21.1,31.79-32.13,4-4.29,8.06-8.52,11.99-12.88,16.09-17.91,31.34-36.45,45.99-55.55,18.05-23.53,34.71-47.95,49.4-73.71,16.73-29.32,30.65-59.88,37.97-92.99,2.42-10.91,3.62-22.09,4.18-33.38,1.07-21.13-2.63-41.45-7.98-61.63Zm-95.36,81.54c-4.98,16.46-15.18,29.43-28.16,40.4-.37.27-.74.52-1.12.79-18.07,13.71-38.66,19.26-60.95,17.04-14.61-1.46-28.08-7.25-39.91-16.12-17.27-12.96-28.4-30.21-32.72-51.25-2.65-12.92-2.31-26.06,1.48-39.06,4.51-15.4,12.19-28.64,23.98-39.48,11.52-10.6,24.85-17.78,40.31-20.58,19.52-3.54,38.29-1.1,56.06,7.83,4.13,2.07,7.85,4.93,11.76,7.44.38.26.75.51,1.12.78,12.82,10.74,22.62,23.63,27.9,39.65,2.04,6.19,3.09,12.55,3.82,19.06,1.3,11.49-.26,22.61-3.57,33.5Z"/>
</svg>