<?xml version="1.0" encoding="UTF-8"?>
<svg id="Layer_1" data-name="Layer 1" xmlns="http://www.w3.org/2000/svg" viewBox="0 0 511.81 490.6">
  <defs>
    <style>
      .cls-1 {
        fill: #ff8a00;
      }
    </style>
  </defs>
  <path class="cls-1" d="m0,199.63v-12.99c.76-.2.8-.83,1.05-1.46,3.64-9.22,9.61-16.14,19.76-17.94,6.3-1.11,12.76-1.34,19.17-1.78,13.26-.92,26.47-2.56,39.72-3.79,8.69-.8,17.43-1.11,26.08-2.15,13.87-1.66,27.79-2.78,41.71-3.89,7.36-.59,14.72-1.28,22.07-2.05,2.09-.22,3.39-1.61,4.24-3.62,7.47-17.77,14.98-35.52,22.53-53.26,11.35-26.67,22.76-53.31,34.12-79.97C235.05,5.92,243.57-.05,254.9,0c10.69.05,19.92,4.34,25.13,14.93,5.08,10.31,9.48,20.93,14.27,31.36,4.55,9.91,8.05,20.33,12.41,30.38,10.85,24.99,21.47,50.09,32.17,75.15.62,1.45,1.72,2,3.17,1.81,3.35-.44,6.54.52,9.79.83,15.23,1.49,30.51,2.45,45.73,4.11,12.44,1.36,24.95,1.92,37.41,3.1,16.16,1.52,32.27,3.92,48.46,4.78,13.61.73,22.43,6.77,27.23,19.24.19.76-.04,1.76,1.13,1.95v12c-2.61,2.83-2.96,6.81-5.33,9.9-5.09,6.64-12.04,11.17-18.12,16.64-16.82,15.16-34.2,29.69-51.19,44.67-13.4,11.81-26.53,23.92-40.33,35.28-4.44,3.66-7.2,7.49-4.53,13.84,1.94,4.61,2.51,9.8,3.63,14.75,7.18,31.72,14.52,63.41,21.42,95.19,2.53,11.66,6.73,23.03,6.51,35.23-.3,16.84-20.76,30.58-35.58,23.63-5.97-2.8-11.51-6.22-17.13-9.54-23.08-13.62-46.09-27.35-69.09-41.1-14.34-8.57-28.65-17.21-42.93-25.89-2.46-1.49-4.17-1.74-7,.02-14.21,8.81-28.74,17.11-43.09,25.69-24.94,14.9-49.84,29.87-74.76,44.81-8.36,5.02-16.63,9.91-27.15,6.78-14.09-4.19-22.16-19.31-19.89-30.37,3.61-17.6,7.77-35.1,11.85-52.6,4.18-17.97,8.34-35.94,12.04-54.02,2.43-11.91,5.64-23.67,8.56-35.49.68-2.76.4-4.88-1.76-7.17-5.5-5.84-11.85-10.7-17.81-16.01-16.07-14.33-32.35-28.43-48.52-42.64-9.83-8.64-19.44-17.55-29.49-25.92-8.84-7.37-18.26-14.06-22.11-25.66Z"/>
</svg>